# Blender 3.4.1
# www.blender.org
mtllib deskbettertop1.mtl
o Cube
v 1.912375 0.037963 -1.282599
v 1.912375 -0.037963 -1.282599
v 1.912375 0.037963 1.251563
v 1.912375 -0.037963 1.251563
v -1.912375 0.037963 -1.282599
v -1.912375 -0.037963 -1.282599
v -1.912375 0.037963 1.251563
v -1.912375 -0.037963 1.251563
v -1.912375 -0.037963 -1.205770
v -1.912375 -0.037963 1.174734
v 1.912375 0.037963 -1.205770
v 1.912375 0.037963 1.174734
v -1.912375 0.037963 1.174734
v -1.912375 0.037963 -1.205770
v 1.912375 -0.037963 1.174734
v 1.912375 -0.037963 -1.205770
v 1.854725 0.037963 1.251563
v -1.854725 0.037963 1.251563
v -1.854725 -0.037963 1.251563
v 1.854725 -0.037963 1.251563
v 1.854725 -0.037963 -1.205770
v -1.854725 -0.037963 -1.205770
v 1.854725 -0.037963 1.174734
v -1.854725 -0.037963 1.174734
v -1.854725 0.037963 -1.205770
v 1.854725 0.037963 -1.205770
v -1.912375 -0.037963 -0.293988
v 1.912375 0.037963 -0.164391
v -1.912375 0.037963 -0.164391
v 1.912375 -0.037963 -0.293988
v 1.854725 0.037963 -0.164391
v -1.854725 0.037963 -0.164391
v -1.854725 -0.037963 -0.293988
v 1.854725 -0.037963 -0.293988
v -1.912375 1.045135 -1.205770
v -1.912375 1.045135 -1.282599
v 1.854725 1.045135 -1.282599
v 1.912375 1.045135 -1.282599
v 1.912375 1.045135 -1.205770
v -1.912375 1.045135 -0.368306
v 1.854725 1.045135 -1.205770
v -1.854725 1.045135 -1.282599
v -1.854725 1.045135 -1.205770
v 1.912375 1.045135 -0.368306
v 1.854725 1.045135 -0.368306
v -1.854725 1.045135 -0.368306
v 1.854725 0.956243 -1.205770
v 1.854725 0.956243 -0.350309
v -1.912375 0.956243 -1.282599
v 1.912375 0.956243 -0.350309
v 1.912375 0.956243 -1.282599
v -1.912375 0.956243 -0.350309
v -1.854725 0.956243 -1.205770
v -1.854725 0.956243 -0.350309
v 1.854725 0.888006 -1.205770
v -1.912375 0.888006 -1.282599
v 1.912375 0.888006 -1.282599
v -1.854725 0.888006 -1.205770
v -1.854725 0.888006 -0.336493
v 1.854725 0.888006 -0.336493
v 1.912375 0.888006 -0.336493
v -1.912375 0.888006 -0.336493
v -1.912375 0.037963 -0.401416
v 1.912375 -0.037963 -0.401416
v -1.912375 -0.037963 -0.401416
v 1.912375 0.037963 -0.401416
v 1.854725 0.037963 -0.401416
v -1.854725 0.037963 -0.401416
v -1.854725 -0.037963 -0.401416
v 1.854725 -0.037963 -0.401416
v -1.912375 1.045135 -0.401416
v 1.912375 1.045135 -0.401416
v 1.854725 1.045135 -0.401416
v -1.854725 1.045135 -0.401416
v -1.854725 0.956243 -0.401416
v -1.854725 0.888006 -0.401416
v 1.854725 0.956243 -0.419293
v -1.854725 0.956243 -0.419293
v 1.854725 0.888006 -0.419293
v -1.854725 0.888006 -0.419293
v 1.854725 0.956243 -0.402048
v -1.854725 0.956243 -0.402048
v 1.854725 0.888006 -0.402048
v -1.854725 0.888006 -0.402048
v 0.855038 0.037963 -1.205770
v 0.783433 0.037963 -1.205770
v 0.783433 0.888006 -1.205770
v 0.855038 0.888006 -1.205770
v 0.855038 0.037963 -0.271819
v 0.783433 0.037963 -0.271819
v 0.855038 0.888006 -0.443921
v 0.783433 0.888006 -0.443921
v 1.854725 0.417623 -1.205770
v -1.912375 0.417623 -1.282599
v 1.912375 0.417623 -1.282599
v -1.854725 0.417623 -1.205770
v -1.854725 0.417623 -0.241258
v 1.854725 0.417623 -0.241258
v 1.912375 0.417623 -0.241258
v -1.912375 0.417623 -0.241258
v 1.854725 0.417623 -0.401416
v 1.854725 0.495325 -0.256990
v 1.912375 0.495325 -0.256990
v -1.912375 0.495325 -0.256990
v 1.854725 0.495325 -0.401416
v 1.854725 0.495325 -1.205770
v -1.912375 0.495325 -1.282599
v 1.912375 0.495325 -1.282599
v -1.854725 0.495325 -1.205770
v -1.854725 0.495325 -0.256990
v 0.856643 0.037963 1.251563
v 0.856643 -0.037963 1.251563
v 0.856643 -0.037963 -1.205770
v 0.856643 -0.037963 1.174734
v 0.856643 0.037963 -1.205770
v 0.856643 -0.037963 -0.293988
v 0.856643 1.045135 -1.282599
v 0.856643 1.045135 -1.205770
v 0.856643 0.956243 -1.205770
v 0.856643 0.888006 -1.205770
v 0.856643 0.888006 -0.419293
v 0.856643 0.956243 -0.402048
v 0.856643 0.888006 -0.402048
v 0.856643 0.417623 -1.205770
v 0.856643 0.495325 -1.205770
v 1.854725 0.495325 -0.466547
v 1.854725 0.417623 -0.466547
v 0.856643 0.417623 -0.466547
v 0.856643 0.495325 -0.466547
v 1.854725 0.495325 -0.402161
v 1.854725 0.417623 -0.402161
v 0.856643 0.417623 -0.402161
v 0.856643 0.495325 -0.402161
v -1.912375 -0.037963 0.800519
v 1.912375 0.037963 0.833539
v -1.854725 -0.037963 0.800519
v 1.854725 -0.037963 0.800519
v -1.912375 0.037963 0.833539
v 1.912375 -0.037963 0.800519
v 0.856643 -0.037963 0.800519
v 1.854725 -0.687195 -0.293988
v 0.856643 -0.687195 -0.293988
v 1.854725 -0.687195 0.800519
v 0.856643 -0.687195 0.800519
v 1.912375 -1.789350 -1.205770
v -1.854725 -1.789350 -1.205770
v -1.912375 -1.789350 -1.205770
v 1.854725 -1.789350 -1.205770
v 1.912375 -1.789350 0.800519
v -1.912375 -1.789350 0.800519
v -1.854725 -1.789350 0.800519
v 1.854725 -1.789350 0.800519
v 1.912375 -1.895497 -0.401416
v 1.912375 -1.895497 -1.205770
v -1.854725 -1.895497 -1.205770
v -1.912375 -1.895497 -1.205770
v 1.854725 -1.895497 -1.205770
v -1.912375 -1.895497 -0.401416
v -1.912375 -1.895497 -0.293988
v 1.912375 -1.895497 0.800519
v 1.912375 -1.895497 -0.293988
v -1.854725 -1.895497 -0.401416
v -1.854725 -1.895497 -0.293988
v 1.854725 -1.895497 -0.401416
v 1.854725 -1.895497 -0.293988
v -1.912375 -1.895497 0.800519
v -1.854725 -1.895497 0.800519
v 1.854725 -1.895497 0.800519
v -1.854725 -0.914897 -1.282599
v -1.912375 -0.914897 -1.282599
v 1.912375 -0.914897 -1.205770
v 1.912375 -0.914897 -1.282599
v -1.912375 -0.914897 -1.205770
v -1.854725 -0.914897 -1.205770
v 1.854725 -0.914897 -1.282599
v 0.856643 -0.914897 -1.282599
v 1.854725 -0.914897 -1.205770
v 0.856643 -0.914897 -1.205770
v -1.912375 0.037963 1.004136
v -0.499041 0.037963 1.251563
v -1.176883 0.037963 1.251563
vn -0.0000 -1.0000 -0.0000
vn -0.0000 -0.0000 1.0000
vn -1.0000 -0.0000 -0.0000
vn -0.0000 1.0000 -0.0000
vn 1.0000 -0.0000 -0.0000
vn -0.0000 0.1984 0.9801
vn -0.0000 -0.0000 -1.0000
vt 0.074546 0.022354
vt 0.085708 0.022354
vt 0.074546 0.011192
vt 0.085708 0.011192
vt 0.074546 0.033517
vt 0.085708 0.033517
vt 0.074546 0.000029
vt 0.063383 0.011192
vt 0.074546 0.044679
vt 0.085708 0.000029
vt 0.096871 0.011192
vt 0.085708 0.044679
vt 0.096871 0.018633
vt 0.085708 0.037238
vt 0.096871 0.014912
vt 0.085708 0.040958
vt 0.074546 0.018633
vt 0.074546 0.014912
vt 0.063383 0.014912
vt 0.074546 0.040958
vt 0.074546 0.037238
vt 0.085708 0.014912
vt 0.085708 0.018633
vt 0.074546 0.007471
vt 0.070825 0.011192
vt 0.074546 0.003750
vt 0.067104 0.011192
vt 0.085708 0.003750
vt 0.093150 0.011192
vt 0.085708 0.007471
vt 0.089429 0.011192
vt 0.089429 0.018633
vt 0.093150 0.018633
vt 0.089429 0.014912
vt 0.093150 0.014912
vt 0.067104 0.018633
vt 0.070825 0.018633
vt 0.085708 0.038663
vt 0.074546 0.017208
vt 0.074546 0.038663
vt 0.063383 0.017208
vt 0.085708 0.017208
vt 0.070825 0.017208
vt 0.067104 0.017208
vt 0.093150 0.017208
vt 0.089429 0.017208
vt 0.074546 0.037238
vt 0.063383 0.018633
vt 0.063383 0.022354
vt 0.074546 0.033517
vt 0.074546 0.026075
vt 0.070825 0.022354
vt 0.074546 0.022354
vt 0.074546 0.018633
vt 0.074546 0.038663
vt 0.063383 0.017208
vt 0.070825 0.018633
vt 0.067104 0.022354
vt 0.074546 0.029796
vt 0.067104 0.018633
vt 0.074546 0.017208
vt 0.070825 0.017208
vt 0.067104 0.017208
vt 0.070825 0.018633
vt 0.070825 0.017208
vt 0.074546 0.033517
vt 0.074546 0.017208
vt 0.074546 0.022354
vt 0.074546 0.038663
vt 0.063383 0.017208
vt 0.067104 0.018633
vt 0.067104 0.017208
vt 0.070825 0.018633
vt 0.074546 0.033517
vt 0.074546 0.022354
vt 0.067104 0.018633
vt 0.067104 0.017208
vt 0.070825 0.017208
vt 0.074546 0.017208
vt 0.074546 0.038663
vt 0.063383 0.017208
vt 0.074546 0.038495
vt 0.085708 0.017376
vt 0.085708 0.038495
vt 0.074546 0.017376
vt 0.070825 0.017376
vt 0.067104 0.017376
vt 0.093150 0.017376
vt 0.089429 0.017376
vt 0.074546 0.038495
vt 0.063383 0.017376
vt 0.074546 0.017376
vt 0.070825 0.017376
vt 0.067104 0.017376
vt 0.067104 0.017376
vt 0.067104 0.017376
vt 0.070825 0.018633
vt 0.067104 0.018633
vt 0.070825 0.018633
vt 0.067104 0.018633
vt 0.070825 0.018633
vt 0.067104 0.018633
vt 0.070825 0.018633
vt 0.067104 0.018633
vt 0.063325 0.000206
vt 0.000029 0.000206
vt 0.005744 0.999971
vt 0.057612 0.999971
vt 0.032314 0.000029
vt 0.031040 0.000029
vt 0.032315 0.999827
vt 0.031041 0.999826
vt 0.070825 0.018633
vt 0.074546 0.033517
vt 0.074546 0.022354
vt 0.067104 0.018633
vt 0.067104 0.017208
vt 0.070825 0.017208
vt 0.074546 0.017208
vt 0.074546 0.038663
vt 0.063383 0.017208
vt 0.070825 0.017376
vt 0.070825 0.017208
vt 0.074546 0.017208
vt 0.074546 0.038663
vt 0.063383 0.017208
vt 0.070825 0.017376
vt 0.070825 0.018633
vt 0.074546 0.033517
vt 0.074546 0.022354
vt 0.067104 0.018633
vt 0.067104 0.017208
vt 0.074546 0.006470
vt 0.069824 0.011192
vt 0.085708 0.006470
vt 0.090430 0.011192
vt 0.090430 0.018633
vt 0.090430 0.014912
vt 0.069824 0.018633
vt 0.090430 0.017208
vt 0.074546 0.027076
vt 0.069824 0.022354
vt 0.069824 0.018633
vt 0.069824 0.018633
vt 0.069824 0.018633
vt 0.069824 0.018633
vt 0.069824 0.018633
vt 0.069824 0.018633
vt 0.069824 0.018633
vt 0.069824 0.018633
vt 0.070825 0.018633
vt 0.070825 0.018633
vt 0.069824 0.018633
vt 0.069824 0.018633
vt 0.070825 0.018633
vt 0.070825 0.018633
vt 0.069824 0.018633
vt 0.069824 0.018633
vt 0.085708 0.040374
vt 0.096871 0.015497
vt 0.074546 0.015497
vt 0.093150 0.015497
vt 0.089429 0.015497
vt 0.063383 0.015497
vt 0.074546 0.040374
vt 0.085708 0.015497
vt 0.090430 0.015497
vt 0.089429 0.017208
vt 0.090430 0.017208
vt 0.089429 0.015497
vt 0.090430 0.015497
vt 0.085708 0.018633
vt 0.093150 0.018633
vt 0.085708 0.037238
vt 0.096871 0.018633
vt 0.089429 0.018633
vt 0.085708 0.015497
vt 0.085708 0.040374
vt 0.096871 0.015497
vt 0.093150 0.015497
vt 0.089429 0.015497
vt 0.085708 0.017376
vt 0.085708 0.018633
vt 0.093150 0.018633
vt 0.085708 0.037238
vt 0.096871 0.018633
vt 0.089429 0.018633
vt 0.085708 0.038495
vt 0.096871 0.017376
vt 0.085708 0.038663
vt 0.096871 0.017208
vt 0.085708 0.015497
vt 0.085708 0.017208
vt 0.093150 0.017376
vt 0.093150 0.017208
vt 0.089429 0.017376
vt 0.089429 0.017208
vt 0.085708 0.040374
vt 0.096871 0.015497
vt 0.093150 0.015497
vt 0.089429 0.015497
vt 0.085708 0.029796
vt 0.093150 0.022354
vt 0.096871 0.022354
vt 0.085708 0.033517
vt 0.085708 0.018633
vt 0.085708 0.022354
vt 0.096871 0.018633
vt 0.085708 0.037238
vt 0.093150 0.018633
vt 0.085708 0.026075
vt 0.089429 0.022354
vt 0.085708 0.027076
vt 0.090430 0.022354
vt 0.089429 0.018633
vt 0.090430 0.018633
vt 0.063383 0.015205
vt 0.074546 0.040666
vt 0.074546 0.005110
vt 0.068464 0.011192
vt 0.074546 0.004430
vt 0.067784 0.011192
s 0
usemtl Material
f 23/34/1 15/22/1 4/4/1 20/31/1
f 18/26/2 7/7/2 8/10/2 19/28/2 112/135/2 20/30/2 4/4/2 3/3/2 17/24/2 111/133/2 180/219/2 181/221/2
f 137/163/1 139/166/1 15/22/1 23/34/1
f 159/190/3 166/198/3 150/178/3 134/159/3 27/38/3 65/84/3 9/14/3 147/174/3 156/185/3 158/188/3
f 17/25/4 3/3/4 12/18/4 135/161/4 28/39/4 31/43/4 67/86/4 26/37/4 115/139/4 25/36/4 68/87/4 32/44/4 29/41/4 138/164/4 179/217/4 13/19/4 7/8/4 18/27/4 181/222/4 180/220/4 111/134/4
f 134/160/1 136/162/1 24/35/1 10/15/1
f 2/2/5 16/23/5 171/206/5 172/207/5
f 10/15/1 24/35/1 19/29/1 8/11/1
f 114/138/1 23/34/1 20/31/1 112/136/1
f 75/95/5 53/71/5 43/60/5 74/94/5 46/63/5 54/72/5 59/77/5 110/132/5 97/117/5 32/44/5 68/87/5 25/36/5 96/116/5 109/131/5 58/76/5 76/96/5
f 113/137/2 22/33/2 174/210/2 178/216/2 177/215/2 21/32/2
f 8/12/3 7/9/3 13/20/3 179/218/3 138/165/3 29/40/3 63/82/3 14/21/3 5/5/3 6/6/3 9/14/3 65/84/3 27/38/3 134/159/3 10/16/3
f 42/58/4 36/49/4 35/48/4 43/60/4
f 38/53/4 37/52/4 41/57/4 39/54/4
f 117/142/4 42/58/4 43/60/4 118/143/4
f 73/93/4 45/62/4 44/61/4 72/92/4 39/54/4 41/57/4
f 70/89/3 21/32/3 148/176/3 157/187/3 164/196/3 165/197/3 168/201/3 152/181/3 137/163/3 34/46/3
f 119/144/2 47/64/2 41/57/2 118/143/2
f 76/96/5 58/76/5 53/71/5 75/95/5
f 53/71/3 58/76/3 80/100/3 78/98/3
f 125/150/2 106/128/2 55/73/2 120/145/2
f 50/67/6 44/61/6 45/62/6 48/65/6 60/78/6 102/123/6 98/118/6 31/43/6 28/39/6 99/119/6 103/124/6 61/79/6
f 12/18/5 3/3/5 4/4/5 15/22/5 139/166/5 30/42/5 64/83/5 16/23/5 2/2/5 1/1/5 11/17/5 66/85/5 28/39/5 135/161/5
f 21/32/7 16/23/7 145/172/7 148/176/7
f 78/98/3 80/100/3 84/104/3 82/102/3
f 55/73/5 47/64/5 77/97/5 79/99/5
f 120/145/1 55/73/1 79/99/1 121/146/1
f 123/148/2 83/103/2 81/101/2 122/147/2
f 121/146/1 79/99/1 83/103/1 123/148/1
f 79/99/5 77/97/5 81/101/5 83/103/5
f 119/144/4 53/71/4 78/98/4 82/102/4 122/147/4
f 89/109/5 85/105/5 88/108/5 91/111/5
f 86/106/3 90/110/3 92/112/3 87/107/3
f 92/112/6 90/110/6 89/109/6 91/111/6
f 35/47/3 36/50/3 49/66/3 56/74/3 107/129/3 94/114/3 5/5/3 14/21/3 63/82/3 29/40/3 100/120/3 104/125/3 62/80/3 52/69/3 40/55/3 71/90/3
f 124/149/2 125/150/2 120/145/2 58/76/2 109/131/2 96/116/2 25/36/2 115/139/2
f 71/91/4 40/56/4 46/63/4 74/94/4 43/60/4 35/48/4
f 115/139/2 26/37/2 93/113/2 124/149/2
f 1/1/7 2/2/7 172/207/7 175/211/7 176/213/7 169/202/7 170/205/7 6/6/7 5/5/7 94/114/7 107/129/7 56/74/7 49/66/7 36/50/7 42/59/7 117/141/7 37/51/7 38/53/7 51/68/7 57/75/7 108/130/7 95/115/7
f 54/72/6 46/63/6 40/56/6 52/70/6 62/81/6 104/126/6 100/121/6 29/41/6 32/44/6 97/117/6 110/132/6 59/77/6
f 93/113/3 101/122/3 105/127/3 106/128/3
f 125/150/3 124/149/3 128/153/3 129/154/3
f 47/64/4 119/144/4 122/147/4 81/101/4 77/97/4
f 80/100/1 121/146/1 123/148/1 84/104/1
f 84/104/2 123/148/2 122/147/2 82/102/2
f 58/76/1 120/145/1 121/146/1 80/100/1
f 48/65/3 45/62/3 73/93/3 41/57/3 47/64/3 55/73/3 106/128/3 105/127/3 101/122/3 93/113/3 26/37/3 67/86/3 31/43/3 98/118/3 102/123/3 60/78/3
f 53/71/2 119/144/2 118/143/2 43/60/2
f 37/52/4 117/142/4 118/143/4 41/57/4
f 24/35/1 114/138/1 112/136/1 19/29/1
f 176/214/1 175/212/1 177/215/1 178/216/1 174/210/1 169/203/1
f 126/151/4 129/154/4 133/158/4 130/155/4
f 93/113/5 106/128/5 126/151/5 127/152/5
f 106/128/4 125/150/4 129/154/4 126/151/4
f 124/149/1 93/113/1 127/152/1 128/153/1
f 132/157/2 131/156/2 130/155/2 133/158/2
f 127/152/5 126/151/5 130/155/5 131/156/5
f 129/154/3 128/153/3 132/157/3 133/158/3
f 128/153/1 127/152/1 131/156/1 132/157/1
f 116/140/7 34/46/7 141/168/7 142/169/7
f 139/166/2 137/163/2 152/181/2 149/177/2
f 142/169/1 141/168/1 143/170/1 144/171/1
f 140/167/3 116/140/3 142/169/3 144/171/3
f 137/163/2 140/167/2 144/171/2 143/170/2
f 34/46/5 137/163/5 143/170/5 141/168/5
f 147/175/7 146/173/7 155/184/7 156/186/7
f 9/13/7 22/33/7 146/173/7 147/175/7
f 69/88/5 33/45/5 136/162/5 151/180/5 167/200/5 163/195/5 162/194/5 155/184/5 146/173/5 22/33/5
f 136/162/2 134/160/2 150/179/2 151/180/2
f 153/182/5 154/183/5 145/172/5 16/23/5 64/83/5 30/42/5 139/166/5 149/177/5 160/192/5 161/193/5
f 39/54/5 72/92/5 44/61/5 50/67/5 61/79/5 103/124/5 99/119/5 28/39/5 66/85/5 11/17/5 1/1/5 95/115/5 108/130/5 57/75/5 51/68/5 38/53/5
f 153/182/1 161/193/1 160/192/1 168/201/1 165/197/1 164/196/1 157/187/1 154/183/1
f 148/176/7 145/172/7 154/183/7 157/187/7
f 151/180/2 150/179/2 166/199/2 167/200/2
f 140/167/1 137/163/1 23/34/1 114/138/1 24/35/1 136/162/1 33/45/1 69/88/1 22/33/1 113/137/1 21/32/1 70/89/1 34/46/1 116/140/1
f 149/177/2 152/181/2 168/201/2 160/192/2
f 175/212/1 172/207/1 171/206/1 177/215/1
f 170/204/1 169/203/1 174/210/1 173/208/1
f 162/194/1 163/195/1 167/200/1 166/199/1 159/191/1 158/189/1 156/186/1 155/184/1
f 22/33/2 9/13/2 173/208/2 174/210/2
f 9/14/3 6/6/3 170/205/3 173/209/3
f 16/23/2 21/32/2 177/215/2 171/206/2
